<?xml version="1.0" encoding="utf-8"?>
<svg width="1440px" height="800px" viewBox="0 0 1440 800" version="1.1" xmlns:xlink="http://www.w3.org/1999/xlink" xmlns="http://www.w3.org/2000/svg">
  <desc>Created with Lunacy</desc>
  <defs>
    <linearGradient x1="0.38397205" y1="0.3487255" x2="0.65757936" y2="0.7598459" id="gradient_1">
      <stop offset="0" stop-color="#1E2D69" />
      <stop offset="0.999129" stop-color="#0C122C" stop-opacity="0" />
    </linearGradient>
    <path d="M209.999 0L1440 0L1440 420L0 420L0 209.999Q0 204.844 0.252953 199.695Q0.505906 194.546 1.0112 189.415Q1.5165 184.285 2.27292 179.186Q3.02934 174.086 4.03507 169.03Q5.0408 163.974 6.29341 158.973Q7.54601 153.973 9.04248 149.04Q10.539 144.106 12.2757 139.252Q14.0124 134.399 15.9852 129.636Q17.958 124.873 20.1621 120.213Q22.3663 115.553 24.7964 111.006Q27.2265 106.46 29.8768 102.038Q32.5271 97.6162 35.3912 93.3298Q38.2553 89.0434 41.3262 84.9027Q44.3972 80.762 47.6676 76.777Q50.938 72.792 54.4 68.9723Q57.862 65.1525 61.5073 61.5073Q65.1525 57.862 68.9723 54.4Q72.792 50.938 76.777 47.6676Q80.762 44.3972 84.9027 41.3262Q89.0434 38.2553 93.3298 35.3912Q97.6162 32.5271 102.038 29.8768Q106.46 27.2265 111.006 24.7964Q115.553 22.3663 120.213 20.1621Q124.873 17.958 129.636 15.9852Q134.399 14.0124 139.252 12.2757Q144.106 10.539 149.04 9.04249Q153.973 7.54601 158.973 6.29341Q163.974 5.0408 169.03 4.03507Q174.086 3.02934 179.186 2.27292Q184.285 1.5165 189.415 1.0112Q194.546 0.505906 199.695 0.252953Q204.844 0 209.999 0L209.999 0Z" id="path_1" />
    <rect width="1440" height="800" id="artboard_1" />
    <clipPath id="clip_1">
      <use xlink:href="#artboard_1" clip-rule="evenodd" />
    </clipPath>
    <clipPath id="mask_1">
      <use xlink:href="#path_1" />
    </clipPath>
  </defs>
  <g id="Desktop" clip-path="url(#clip_1)">
    <use xlink:href="#artboard_1" stroke="none" fill="#0C122C" />
    <g id="Path-5" transform="translate(0 380)">
      <g id="Path-2">
        <path d="M209.999 0L1440 0L1440 420L0 420L0 209.999Q0 204.844 0.252953 199.695Q0.505906 194.546 1.0112 189.415Q1.5165 184.285 2.27292 179.186Q3.02934 174.086 4.03507 169.03Q5.0408 163.974 6.29341 158.973Q7.54601 153.973 9.04248 149.04Q10.539 144.106 12.2757 139.252Q14.0124 134.399 15.9852 129.636Q17.958 124.873 20.1621 120.213Q22.3663 115.553 24.7964 111.006Q27.2265 106.46 29.8768 102.038Q32.5271 97.6162 35.3912 93.3298Q38.2553 89.0434 41.3262 84.9027Q44.3972 80.762 47.6676 76.777Q50.938 72.792 54.4 68.9723Q57.862 65.1525 61.5073 61.5073Q65.1525 57.862 68.9723 54.4Q72.792 50.938 76.777 47.6676Q80.762 44.3972 84.9027 41.3262Q89.0434 38.2553 93.3298 35.3912Q97.6162 32.5271 102.038 29.8768Q106.46 27.2265 111.006 24.7964Q115.553 22.3663 120.213 20.1621Q124.873 17.958 129.636 15.9852Q134.399 14.0124 139.252 12.2757Q144.106 10.539 149.04 9.04249Q153.973 7.54601 158.973 6.29341Q163.974 5.0408 169.03 4.03507Q174.086 3.02934 179.186 2.27292Q184.285 1.5165 189.415 1.0112Q194.546 0.505906 199.695 0.252953Q204.844 0 209.999 0L209.999 0Z" id="Mask" fill="#0F1B3D" stroke="none" />
        <g clip-path="url(#mask_1)">
          <path d="M6.04159 1010.03C-27.2401 830.633 70.4191 671.991 463.665 638.636C856.912 605.28 877.082 389.091 1092.75 194.762C1308.41 0.432564 1702.06 -136.15 1812.4 226.763C1922.74 589.676 1879.86 826.191 1521.24 1124.8C1162.63 1423.41 785.128 1361.71 629.13 1338.76C473.133 1315.81 39.3233 1189.42 6.04159 1010.03Z" transform="matrix(-1 0 0 1 1953 -352)" id="Path-2-Copy-2" fill="url(#gradient_1)" fill-opacity="0.75" stroke="none" />
          <path d="M4.35669 728.549C-19.6433 599.149 50.7803 484.718 334.357 460.658C617.933 436.598 632.478 280.658 787.996 140.485C943.515 0.312015 1227.39 -98.2068 1306.95 163.568C1386.52 425.343 1355.6 595.944 1096.99 811.337C838.389 1026.73 566.169 982.223 453.676 965.669C341.184 949.115 28.3567 857.949 4.35669 728.549Z" transform="matrix(-1 0 0 1 1259.6031 -111)" id="Path-2-Copy" fill="url(#gradient_1)" fill-opacity="0.75" stroke="none" />
          <path d="M4.35669 728.549C-19.6433 599.149 50.7803 484.718 334.357 460.658C617.933 436.598 632.478 280.658 787.996 140.485C943.515 0.312015 1227.39 -98.2068 1306.95 163.568C1386.52 425.343 1355.6 595.944 1096.99 811.337C838.389 1026.73 566.169 982.223 453.676 965.669C341.184 949.115 28.3567 857.949 4.35669 728.549Z" transform="matrix(-1 0 0 1 1231.6031 163)" id="Path-2-Copy-4" fill="url(#gradient_1)" fill-opacity="0.30048478" stroke="none" />
        </g>
      </g>
    </g>
  </g>
</svg>