<?xml version="1.0" encoding="utf-8"?>
<svg width="48px" height="48px" viewBox="0 0 48 48" version="1.1" xmlns:xlink="http://www.w3.org/1999/xlink" xmlns="http://www.w3.org/2000/svg">
  <desc>Created with Lunacy</desc>
  <g id="Group-3">
    <path d="M9.999 0L38.001 0Q38.2465 0 38.4916 0.0120442Q38.7368 0.0240885 38.9811 0.0481479Q39.2253 0.0722074 39.4682 0.108224Q39.711 0.144241 39.9517 0.192128Q40.1924 0.240015 40.4305 0.299657Q40.6687 0.3593 40.9035 0.430553Q41.1384 0.501807 41.3696 0.584501Q41.6007 0.667194 41.8274 0.761128Q42.0542 0.855062 42.2761 0.960011Q42.498 1.06496 42.7145 1.18067Q42.931 1.29638 43.1415 1.42257Q43.352 1.54876 43.5561 1.68514Q43.7602 1.82151 43.9574 1.96773Q44.1545 2.11395 44.3443 2.26967Q44.534 2.42539 44.7159 2.59023Q44.8978 2.75507 45.0714 2.92864Q45.2449 3.10221 45.4098 3.28408Q45.5746 3.46596 45.7303 3.6557Q45.886 3.84545 46.0323 4.0426Q46.1785 4.23976 46.3149 4.44385Q46.4512 4.64795 46.5774 4.85849Q46.7036 5.06903 46.8193 5.2855Q46.935 5.50198 47.04 5.72388Q47.1449 5.94577 47.2389 6.17255Q47.3328 6.39932 47.4155 6.63044Q47.4982 6.86155 47.5694 7.09644Q47.6407 7.33134 47.7003 7.56944Q47.76 7.80755 47.8079 8.04829Q47.8557 8.28904 47.8918 8.53184Q47.9278 8.77465 47.9518 9.01893Q47.9759 9.26321 47.988 9.50837Q48 9.75354 48 9.999L48 38.001Q48 38.2465 47.988 38.4916Q47.9759 38.7368 47.9518 38.9811Q47.9278 39.2253 47.8918 39.4682Q47.8557 39.711 47.8079 39.9517Q47.76 40.1924 47.7003 40.4305Q47.6407 40.6687 47.5694 40.9035Q47.4982 41.1384 47.4155 41.3696Q47.3328 41.6007 47.2389 41.8274Q47.1449 42.0542 47.04 42.2761Q46.935 42.498 46.8193 42.7145Q46.7036 42.931 46.5774 43.1415Q46.4512 43.352 46.3149 43.5561Q46.1785 43.7602 46.0323 43.9574Q45.886 44.1545 45.7303 44.3443Q45.5746 44.534 45.4098 44.7159Q45.2449 44.8978 45.0714 45.0714Q44.8978 45.2449 44.7159 45.4098Q44.534 45.5746 44.3443 45.7303Q44.1545 45.886 43.9574 46.0323Q43.7602 46.1785 43.5561 46.3149Q43.352 46.4512 43.1415 46.5774Q42.931 46.7036 42.7145 46.8193Q42.498 46.935 42.2761 47.04Q42.0542 47.1449 41.8274 47.2389Q41.6007 47.3328 41.3696 47.4155Q41.1384 47.4982 40.9036 47.5694Q40.6687 47.6407 40.4306 47.7003Q40.1924 47.76 39.9517 47.8079Q39.711 47.8557 39.4682 47.8918Q39.2253 47.9278 38.9811 47.9518Q38.7368 47.9759 38.4916 47.988Q38.2465 48 38.001 48L9.999 48Q9.75354 48 9.50837 47.988Q9.26321 47.9759 9.01893 47.9518Q8.77465 47.9278 8.53184 47.8918Q8.28904 47.8557 8.04829 47.8079Q7.80755 47.76 7.56944 47.7003Q7.33134 47.6407 7.09644 47.5694Q6.86155 47.4982 6.63044 47.4155Q6.39932 47.3328 6.17255 47.2389Q5.94577 47.1449 5.72388 47.04Q5.50198 46.935 5.2855 46.8193Q5.06903 46.7036 4.85849 46.5774Q4.64795 46.4512 4.44385 46.3149Q4.23976 46.1785 4.0426 46.0323Q3.84545 45.886 3.6557 45.7303Q3.46596 45.5746 3.28408 45.4098Q3.10221 45.2449 2.92864 45.0714Q2.75507 44.8978 2.59023 44.7159Q2.42539 44.534 2.26967 44.3443Q2.11395 44.1545 1.96773 43.9574Q1.82151 43.7602 1.68514 43.5561Q1.54876 43.352 1.42257 43.1415Q1.29638 42.931 1.18067 42.7145Q1.06496 42.498 0.960011 42.2761Q0.855062 42.0542 0.761128 41.8274Q0.667194 41.6007 0.584501 41.3696Q0.501807 41.1384 0.430553 40.9036Q0.3593 40.6687 0.299657 40.4306Q0.240015 40.1924 0.192128 39.9517Q0.144241 39.711 0.108224 39.4682Q0.0722074 39.2253 0.0481479 38.9811Q0.0240885 38.7368 0.0120442 38.4916Q0 38.2465 0 38.001L0 9.999Q0 9.75354 0.0120442 9.50837Q0.0240885 9.26321 0.0481479 9.01893Q0.0722074 8.77465 0.108224 8.53184Q0.144241 8.28904 0.192128 8.04829Q0.240015 7.80755 0.299657 7.56944Q0.3593 7.33134 0.430553 7.09644Q0.501807 6.86155 0.584501 6.63044Q0.667194 6.39932 0.761128 6.17255Q0.855062 5.94577 0.960011 5.72388Q1.06496 5.50198 1.18067 5.2855Q1.29638 5.06903 1.42257 4.85849Q1.54876 4.64795 1.68514 4.44385Q1.82151 4.23976 1.96773 4.0426Q2.11395 3.84545 2.26967 3.6557Q2.42539 3.46596 2.59023 3.28408Q2.75507 3.10221 2.92864 2.92864Q3.10221 2.75507 3.28408 2.59023Q3.46596 2.42539 3.6557 2.26967Q3.84545 2.11395 4.0426 1.96773Q4.23976 1.82151 4.44385 1.68514Q4.64795 1.54876 4.85849 1.42257Q5.06903 1.29638 5.2855 1.18067Q5.50198 1.06496 5.72388 0.960011Q5.94577 0.855062 6.17255 0.761128Q6.39932 0.667194 6.63044 0.584501Q6.86155 0.501807 7.09644 0.430553Q7.33134 0.3593 7.56944 0.299657Q7.80755 0.240015 8.04829 0.192128Q8.28904 0.144241 8.53184 0.108224Q8.77465 0.0722074 9.01893 0.0481479Q9.26321 0.0240885 9.50837 0.0120442Q9.75354 0 9.999 0L9.999 0Z" id="Rectangle-Copy" fill="#0C122C" stroke="none" />
    <path d="M12 0C15.7 0 18.7 2.6 19.4 6C21.9 6.2 24 8.4 24 11C24 13.8 21.8 16 19 16L6 16C2.7 16 0 13.3 0 10C0 6.9 2.3 4.4 5.4 4C6.6 1.6 9.1 0 12 0ZM14 13L14 9L17 9L12 4L7 9L10 9L10 13L14 13Z" transform="translate(12 16)" id="Shape" fill="#697ED4" fill-rule="evenodd" stroke="none" />
  </g>
</svg>