<?xml version="1.0" encoding="utf-8"?>
<svg width="135px" height="40px" viewBox="0 0 135 40" version="1.1" xmlns:xlink="http://www.w3.org/1999/xlink" xmlns="http://www.w3.org/2000/svg">
  <desc>Created with Lunacy</desc>
  <g id="Group-4-Copy">
    <path d="M0 10.6859L0 10.5873L22.8227 0L45.7258 10.6233L45.7258 10.6499L22.8227 21.2737L0 10.6859ZM22.8232 3.86627L8.22793 10.6369L22.8227 17.4069L37.4198 10.6369L22.8232 3.86627ZM22.8227 25.3859L0 14.9567L0 18.8141L22.8227 29.2672L45.7258 18.7786L45.7258 14.9208L22.8227 25.3859ZM0 22.7791L22.8227 33.2092L45.7258 22.7435L45.7258 26.601L22.8227 37.0909L0 26.6365L0 22.7791Z" transform="translate(0 2.0061936)" id="Fill-1" fill="#FFFFFF" fill-rule="evenodd" stroke="none" />
    <path d="M50.7161 30.4608C51.234 30.34 51.6978 30.1828 52.1073 29.9894L52.1073 25.7104C51.5532 26.073 50.9751 26.2544 50.3728 26.2544C49.891 26.2544 49.4755 26.0912 49.1261 25.7648C48.7769 25.4384 48.6022 24.8401 48.6022 23.9698L48.6022 0L43.2903 0L43.2903 24.8764C43.2903 25.9159 43.4468 26.8043 43.76 27.5417C44.0732 28.279 44.4948 28.8774 45.0248 29.3367C45.5548 29.796 46.1751 30.1285 46.8857 30.3339C47.5964 30.5394 48.3372 30.6422 49.1081 30.6422C49.6622 30.6422 50.1982 30.5817 50.7161 30.4608ZM5.49258 5.94712L19.0795 5.94712L19.0795 1.12412L0 1.12412L0 30.0982L5.49258 30.0982L5.49258 17.2611L18.8988 17.2611L18.8988 12.692L5.49258 12.692L5.49258 5.94712ZM76.2097 19.6182C76.2097 21.1896 75.9206 22.6462 75.3424 23.9879C74.7643 25.3296 73.9693 26.4901 72.9575 27.4692C71.9457 28.4482 70.7593 29.2218 69.3982 29.79C68.037 30.3581 66.5856 30.6422 65.0438 30.6422C63.502 30.6422 62.0566 30.3581 60.7075 29.79C59.3585 29.2218 58.1781 28.4423 57.1663 27.451C56.1545 26.4598 55.3595 25.2934 54.7814 23.9517C54.2032 22.6099 53.9141 21.1654 53.9141 19.6182C53.9141 18.0952 54.2092 16.6628 54.7994 15.3211C55.3896 13.9793 56.1906 12.8068 57.2024 11.8036C58.2142 10.8003 59.3946 10.0146 60.7437 9.44647C62.0927 8.87837 63.5261 8.5943 65.0438 8.5943C66.5856 8.5943 68.037 8.87837 69.3982 9.44647C70.7593 10.0146 71.9457 10.7882 72.9575 11.7673C73.9693 12.7464 74.7643 13.9129 75.3424 15.2667C75.9206 16.6205 76.2097 18.071 76.2097 19.6182ZM40.9415 9.10199L31.5462 34.0146C30.8476 35.8761 29.9322 37.2178 28.7999 38.0398C27.6677 38.8618 26.3186 39.2727 24.7528 39.2727C24.5119 39.2727 24.2469 39.2546 23.9578 39.2184C23.6687 39.1821 23.3917 39.1277 23.1267 39.0552L21.3922 34.196C21.8017 34.3894 22.2233 34.5404 22.6569 34.6492C23.0906 34.758 23.5001 34.8124 23.8855 34.8124C24.7046 34.8124 25.4514 34.6251 26.1259 34.2503C26.8004 33.8756 27.3184 33.1806 27.6798 32.1652L28.4024 30.0619L20.3443 9.10199L26.0175 9.10199L30.8235 22.5918L35.3405 9.10199L40.9415 9.10199ZM70.5364 17.1161C70.8496 17.8897 71.0062 18.7237 71.0062 19.6182C71.0062 20.5127 70.8496 21.3468 70.5364 22.1203C70.2232 22.894 69.7956 23.5709 69.2536 24.1511C68.7116 24.7313 68.0792 25.1846 67.3565 25.5109C66.6338 25.8373 65.8629 26.0005 65.0438 26.0005C64.2248 26.0005 63.4539 25.8373 62.7311 25.5109C62.0085 25.1846 61.3761 24.7313 60.8341 24.1511C60.292 23.5709 59.8644 22.894 59.5512 22.1203C59.2381 21.3468 59.0815 20.5127 59.0815 19.6182C59.0815 18.7237 59.2381 17.8897 59.5512 17.1161C59.8644 16.3425 60.292 15.6656 60.8341 15.0854C61.3761 14.5052 62.0085 14.0519 62.7311 13.7255C63.4539 13.3992 64.2248 13.236 65.0438 13.236C65.8629 13.236 66.6338 13.3992 67.3565 13.7255C68.0792 14.0519 68.7116 14.5052 69.2536 15.0854C69.7956 15.6656 70.2232 16.3425 70.5364 17.1161Z" transform="translate(58.79032 0.55164826)" id="Fill-2" fill="#FFFFFF" fill-rule="evenodd" stroke="none" />
  </g>
</svg>