<?xml version="1.0" encoding="utf-8"?>
<svg width="179px" height="94px" viewBox="0 0 179 94" version="1.1" xmlns:xlink="http://www.w3.org/1999/xlink" xmlns="http://www.w3.org/2000/svg">
  <desc>Created with Lunacy</desc>
  <defs>
    <filter filterUnits="userSpaceOnUse" color-interpolation-filters="sRGB" id="filter_1">
      <feFlood flood-opacity="0" result="BackgroundImageFix" />
      <feColorMatrix in="SourceAlpha" type="matrix" values="0 0 0 0 0 0 0 0 0 0 0 0 0 0 0 0 0 0 127 0" />
      <feOffset dx="0" dy="75" />
      <feGaussianBlur stdDeviation="50" />
      <feColorMatrix type="matrix" values="0 0 0 0 0 0 0 0 0 0 0 0 0 0 0 0 0 0 0.24705882 0" />
      <feBlend mode="normal" in2="BackgroundImageFix" result="effect0_dropShadow" />
      <feBlend mode="normal" in="SourceGraphic" in2="effect0_dropShadow" result="shape" />
    </filter>
  </defs>
  <g id="Group-13">
    <g id="Group-12">
      <g filter="url(#filter_1)">
        <path d="M9.999 0L169.001 0Q169.246 0 169.492 0.0120442Q169.737 0.0240885 169.981 0.0481479Q170.225 0.0722074 170.468 0.108224Q170.711 0.144241 170.952 0.192128Q171.192 0.240015 171.431 0.299657Q171.669 0.3593 171.904 0.430553Q172.138 0.501807 172.37 0.584501Q172.601 0.667194 172.827 0.761128Q173.054 0.855062 173.276 0.960011Q173.498 1.06496 173.714 1.18067Q173.931 1.29638 174.141 1.42257Q174.352 1.54876 174.556 1.68514Q174.76 1.82151 174.957 1.96773Q175.155 2.11395 175.344 2.26967Q175.534 2.42539 175.716 2.59023Q175.898 2.75507 176.071 2.92864Q176.245 3.10221 176.41 3.28408Q176.575 3.46596 176.73 3.6557Q176.886 3.84545 177.032 4.0426Q177.178 4.23976 177.315 4.44385Q177.451 4.64795 177.577 4.85849Q177.704 5.06903 177.819 5.2855Q177.935 5.50198 178.04 5.72388Q178.145 5.94577 178.239 6.17255Q178.333 6.39932 178.415 6.63044Q178.498 6.86155 178.569 7.09644Q178.641 7.33134 178.7 7.56944Q178.76 7.80755 178.808 8.04829Q178.856 8.28904 178.892 8.53184Q178.928 8.77465 178.952 9.01893Q178.976 9.26321 178.988 9.50837Q179 9.75354 179 9.999L179 72L9.999 72Q9.75354 72 9.50837 71.9879Q9.26321 71.9759 9.01893 71.9519Q8.77465 71.9278 8.53184 71.8918Q8.28904 71.8558 8.04829 71.8079Q7.80755 71.76 7.56944 71.7003Q7.33134 71.6407 7.09644 71.5694Q6.86155 71.4982 6.63044 71.4155Q6.39932 71.3328 6.17255 71.2389Q5.94577 71.1449 5.72388 71.04Q5.50198 70.935 5.2855 70.8193Q5.06903 70.7036 4.85849 70.5774Q4.64795 70.4512 4.44385 70.3149Q4.23976 70.1785 4.0426 70.0323Q3.84545 69.8861 3.6557 69.7303Q3.46596 69.5746 3.28408 69.4098Q3.10221 69.2449 2.92864 69.0714Q2.75507 68.8978 2.59023 68.7159Q2.42539 68.534 2.26967 68.3443Q2.11395 68.1545 1.96773 67.9574Q1.82151 67.7602 1.68514 67.5561Q1.54876 67.3521 1.42257 67.1415Q1.29638 66.931 1.18067 66.7145Q1.06496 66.498 0.960011 66.2761Q0.855062 66.0542 0.761128 65.8274Q0.667194 65.6007 0.584501 65.3696Q0.501807 65.1384 0.430553 64.9035Q0.3593 64.6687 0.299657 64.4305Q0.240015 64.1924 0.192128 63.9517Q0.144241 63.711 0.108224 63.4682Q0.0722074 63.2253 0.0481479 62.9811Q0.0240885 62.7368 0.0120442 62.4916Q0 62.2465 0 62.001L0 9.999Q0 9.75354 0.0120442 9.50837Q0.0240885 9.26321 0.0481479 9.01893Q0.0722074 8.77465 0.108224 8.53184Q0.144241 8.28904 0.192128 8.04829Q0.240015 7.80755 0.299657 7.56944Q0.3593 7.33134 0.430553 7.09644Q0.501807 6.86155 0.584501 6.63044Q0.667194 6.39932 0.761128 6.17255Q0.855062 5.94577 0.960011 5.72388Q1.06496 5.50198 1.18067 5.2855Q1.29638 5.06903 1.42257 4.85849Q1.54876 4.64795 1.68514 4.44385Q1.82151 4.23976 1.96773 4.0426Q2.11395 3.84545 2.26967 3.6557Q2.42539 3.46596 2.59023 3.28408Q2.75507 3.10221 2.92864 2.92864Q3.10221 2.75507 3.28408 2.59023Q3.46596 2.42539 3.6557 2.26967Q3.84545 2.11395 4.0426 1.96773Q4.23976 1.82151 4.44385 1.68514Q4.64795 1.54876 4.85849 1.42257Q5.06903 1.29638 5.2855 1.18067Q5.50198 1.06496 5.72388 0.960011Q5.94577 0.855062 6.17255 0.761128Q6.39932 0.667194 6.63044 0.584501Q6.86155 0.501807 7.09644 0.430553Q7.33134 0.3593 7.56944 0.299657Q7.80755 0.240015 8.04829 0.192128Q8.28904 0.144241 8.53184 0.108224Q8.77465 0.0722074 9.01893 0.0481479Q9.26321 0.0240885 9.50837 0.0120442Q9.75354 0 9.999 0Z" id="Rectangle" fill="#FFFFFF" stroke="none" />
      </g>
    </g>
    <g filter="url(#filter_1)">
      <path d="M1.13686e-13 0L22.6609 22.6609L22.6609 0L1.13686e-13 0Z" transform="translate(156.33905 71)" id="Path-3" fill="#FFFFFF" stroke="none" />
    </g>
  </g>
</svg>